<?xml version="1.0" encoding="UTF-8"?>
<svg id="_レイヤー_1" data-name="レイヤー_1" xmlns="http://www.w3.org/2000/svg" xmlns:xlink="http://www.w3.org/1999/xlink" version="1.1" viewBox="0 0 235.4 237">
  <!-- Generator: Adobe Illustrator 29.3.1, SVG Export Plug-In . SVG Version: 2.1.0 Build 151)  -->
  <defs>
    <style>
      .st0 {
        fill: #231815;
      }

      .st1 {
        opacity: .7;
      }
    </style>
  </defs>
  <g id="_グループ_4190" data-name="グループ_4190">
    <g id="_グループ_4188" data-name="グループ_4188" class="st1">
      <path id="_パス_379" data-name="パス_379" class="st0" d="M233.5,183.4h-36.6l-7.2,7.2h-17.2v-47.4h-6v47.4h-50v-47.4h-6v47.4h-54.8c-1.1-2.3-3.4-3.8-5.9-3.8-3.6,0-6.5,2.9-6.5,6.5s2.9,6.5,6.5,6.5,4.8-1.5,5.9-3.8h29.1c-.4,6.7-2.5,13.2-6,18.9-4.9,7.5-16.1,15.4-31.7,15.4-23.5,0-40.7-18.3-40.7-41.1s17.8-41.8,41.1-41.8c9.6.1,18.8,3.4,26.1,9.6,3.4,2.9,6.4,6.3,8.7,10.1l4.8-3.8c-3-4.4-6.7-8.2-10.9-11.5-8.1-6.5-18.2-10-28.6-9.8C21.1,142,0,162,0,189s20.4,46.9,47.2,46.9,26.2-5.1,34.3-15.3c6-7.6,8.3-16.8,9-24.5h20v4.1c0,10,.5,16.5,5.2,23.4,6.8,10,17.6,12.3,25.8,12.3s19-2.3,25.8-12.3c4.6-6.8,5.2-13.4,5.2-23.4v-4.1h17.2l7.2,7.2h36.6l-9.9-9.9,9.9-10ZM166.5,200.1c0,8.6-.4,14.2-3.8,19.7-5.3,8.6-15.3,10.5-21.2,10.5s-15.9-1.9-21.2-10.5c-3.4-5.5-3.8-11.1-3.8-19.7v-4.1h50v4.1Z"/>
      <g id="_グループ_1569" data-name="グループ_1569">
        <path id="_パス_380" data-name="パス_380" class="st0" d="M26,9.7c-1.7-3.7-5.5-6.1-9.6-6-5.8,0-9.1,4.2-9.1,9.1s3.7,7,8.6,9.4c4.8,2.3,7.2,3.4,9.7,5.1,3.3,2,5.3,5.6,5.2,9.4,0,8.2-6.9,14.3-15.2,14.3-4.4.2-8.6-1.7-11.3-5.1-1.4-1.6-2.5-3.4-3.1-5.3l2.8-1.3c.5,1.7,1.4,3.2,2.5,4.7,2.3,2.7,5.6,4.2,9.1,4.2,6.6,0,11.8-4.8,11.8-11.3s-1-5.4-4.8-7.7c-1.4-.8-4.2-2.3-8.3-4.2-4.8-2.3-7.2-3.7-8.9-6.4-1-1.7-1.6-3.6-1.5-5.6C3.9,7.4,7.7.9,16.4.9c4.9-.1,9.5,2.6,11.8,6.9l-2.2,1.9Z"/>
        <path id="_パス_381" data-name="パス_381" class="st0" d="M66.6,34.2h-20.8l-6.5,16h-3.5L56.3,0l20.3,50.3h-3.5l-6.5-16.1ZM65.4,31.3l-9.2-23.1-9.3,23.1h18.5Z"/>
        <path id="_パス_382" data-name="パス_382" class="st0" d="M87.4,24.4L110.4,1.4h4.2l-23.6,23.4,25,25.5h-4.4l-22.9-23.3-1.3,1.2v22h-3.2V1.5h3.2s0,22.9,0,22.9Z"/>
        <path id="_パス_383" data-name="パス_383" class="st0" d="M124.6,1.5v30.5c0,4.6.2,7.6,2,10.5,2.8,4.6,8.2,5.6,11.3,5.6s8.5-1,11.3-5.6c1.8-2.9,2-5.9,2-10.5V1.5h3.2v30.5c0,5.3-.3,8.9-2.8,12.5-3.7,5.3-9.4,6.6-13.8,6.6s-10.2-1.2-13.8-6.6c-2.5-3.7-2.8-7.2-2.8-12.5V1.5h3.4Z"/>
        <path id="_パス_384" data-name="パス_384" class="st0" d="M178.2,29.4L162.2,1.5h3.7l14,24.6,14.3-24.6h3.7l-16.5,27.9v20.8h-3.2v-20.8Z"/>
        <path id="_パス_385" data-name="パス_385" class="st0" d="M225.5,34.2h-20.8l-6.5,16h-3.5L215.2,0l20.3,50.3h-3.5l-6.5-16.1ZM224.3,31.3l-9.2-23.1-9.3,23.1h18.5Z"/>
      </g>
      <g id="_グループ_1570" data-name="グループ_1570">
        <path id="_パス_386" data-name="パス_386" class="st0" d="M6.3,96.3l24.7-24.6h4.6l-25.3,25,26.7,27.3h-4.7l-24.6-24.9-1.4,1.3v23.6h-3.5v-52.3h3.5v24.6Z"/>
        <path id="_パス_387" data-name="パス_387" class="st0" d="M54.7,101.7l-17.2-30h3.9l15.1,26.4,15.4-26.4h3.9l-17.6,30v22.3h-3.5v-22.3Z"/>
        <path id="_パス_388" data-name="パス_388" class="st0" d="M87.4,71.7v32.7c0,4.9.2,8.2,2.2,11.3,3.1,4.9,8.8,6,12.2,6s9.1-1.1,12.2-6c2-3.1,2.2-6.4,2.2-11.3v-32.7h3.5v32.7c0,5.7-.3,9.5-3,13.4-3.9,5.7-10.1,7.1-14.8,7.1s-10.9-1.3-14.8-7.1c-2.7-3.9-3-7.7-3-13.4v-32.7h3.3Z"/>
        <path id="_パス_389" data-name="パス_389" class="st0" d="M133.7,124v-52.3h10.3c4.6,0,12.7.7,19.3,7.3,4.9,5.1,7.6,11.9,7.5,18.9,0,7-2.7,13.8-7.5,18.8-6.6,6.6-14.7,7.3-19.3,7.3h-10.3ZM137.1,120.9h6.8c13.8,0,23.3-9.4,23.3-23s-9.6-23.1-23.3-23.1h-6.8v46.1Z"/>
        <path id="_パス_390" data-name="パス_390" class="st0" d="M233.6,98c.1,14.7-11.8,26.8-26.5,26.9h-.6c-14.7.3-26.9-11.4-27.1-26.2v-.7c-.1-14.8,11.8-26.9,26.6-27h.6c14.8-.2,26.9,11.6,27.1,26.4-.1.2-.1.4-.1.6ZM230,98c0-13.4-10-23.8-23.5-23.8s-23.6,10.4-23.6,23.8,10,23.8,23.5,23.8,23.6-10.5,23.6-23.8h0Z"/>
      </g>
    </g>
  </g>
</svg>